include "include/hUGE.inc"

SECTION "Song Data", ROMX

song_descriptor::
db 5
dw order_cnt
dw order1, order2, order3, order4
dw duty_instruments, wave_instruments, noise_instruments
dw routines
dw waves

order_cnt: db 32
order1: dw P0,P0,P4,P8,P4,P8,P12,P13,P14,P15,P14,P15,P14,P15,P16,P1
order2: dw P1,P1,P0,P0,P0,P0,P11,P11,P11,P11,P11,P11,P0,P0,P0,P0
order3: dw P2,P2,P2,P2,P2,P2,P10,P10,P10,P10,P10,P10,P2,P2,P2,P2
order4: dw P3,P3,P3,P3,P3,P3,P9,P9,P9,P9,P9,P9,P3,P3,P3,P3

P0:
 dn F#4,2,$037
 dn ___,0,$037
 dn F#4,3,$037
 dn ___,0,$037
 dn ___,0,$037
 dn ___,0,$037
 dn F#4,2,$037
 dn ___,0,$037
 dn ___,0,$037
 dn ___,0,$037
 dn F#4,2,$037
 dn ___,0,$037
 dn F#4,2,$037
 dn ___,0,$037
 dn D_4,3,$047
 dn ___,0,$047
 dn ___,0,$047
 dn ___,0,$047
 dn D_4,2,$047
 dn ___,0,$047
 dn D_4,2,$047
 dn ___,0,$047
 dn D_4,2,$047
 dn ___,0,$047
 dn E_4,2,$027
 dn ___,0,$027
 dn E_4,3,$027
 dn ___,0,$027
 dn ___,0,$027
 dn ___,0,$027
 dn E_4,2,$027
 dn ___,0,$027
 dn F#4,2,$037
 dn ___,0,$037
 dn F#4,3,$037
 dn ___,0,$037
 dn ___,0,$037
 dn ___,0,$037
 dn F#4,2,$037
 dn ___,0,$037
 dn ___,0,$037
 dn ___,0,$037
 dn F#4,2,$037
 dn ___,0,$037
 dn F#4,2,$037
 dn ___,0,$037
 dn A_4,3,$047
 dn ___,0,$047
 dn ___,0,$047
 dn ___,0,$047
 dn A_4,2,$047
 dn ___,0,$047
 dn A_4,2,$047
 dn ___,0,$047
 dn A_4,2,$047
 dn ___,0,$047
 dn E_4,2,$027
 dn ___,0,$027
 dn E_4,3,$027
 dn ___,0,$027
 dn ___,0,$027
 dn ___,0,$027
 dn E_4,2,$027
 dn ___,0,$027

P1:
 dn F#5,1,$037
 dn ___,0,$037
 dn ___,0,$037
 dn ___,0,$037
 dn ___,0,$037
 dn ___,0,$037
 dn F#5,1,$037
 dn ___,0,$037
 dn ___,0,$037
 dn ___,0,$037
 dn F#5,1,$037
 dn ___,0,$037
 dn ___,0,$037
 dn ___,0,$037
 dn D_5,1,$047
 dn ___,0,$047
 dn ___,0,$047
 dn ___,0,$047
 dn D_5,1,$047
 dn ___,0,$047
 dn ___,0,$047
 dn ___,0,$047
 dn ___,0,$047
 dn ___,0,$047
 dn E_5,1,$047
 dn ___,0,$047
 dn ___,0,$047
 dn ___,0,$047
 dn E_5,1,$047
 dn ___,0,$047
 dn E_5,1,$047
 dn ___,0,$047
 dn F#5,1,$037
 dn ___,0,$037
 dn ___,0,$037
 dn ___,0,$037
 dn ___,0,$037
 dn ___,0,$037
 dn F#5,1,$037
 dn ___,0,$037
 dn ___,0,$037
 dn ___,0,$037
 dn F#5,1,$037
 dn ___,0,$037
 dn ___,0,$037
 dn ___,0,$037
 dn A_5,1,$047
 dn ___,0,$047
 dn ___,0,$047
 dn ___,0,$047
 dn A_5,1,$047
 dn ___,0,$047
 dn ___,0,$047
 dn ___,0,$047
 dn ___,0,$047
 dn ___,0,$047
 dn E_5,1,$047
 dn ___,0,$047
 dn ___,0,$047
 dn ___,0,$047
 dn E_5,1,$047
 dn ___,0,$047
 dn E_5,1,$047
 dn ___,0,$047

P2:
 dn F#3,2,$000
 dn ___,0,$C03
 dn F#4,2,$421
 dn ___,0,$422
 dn ___,0,$423
 dn ___,0,$C03
 dn F#4,2,$000
 dn ___,0,$000
 dn F#3,2,$000
 dn ___,0,$C03
 dn F#4,2,$000
 dn ___,0,$C03
 dn F#3,2,$000
 dn ___,0,$C03
 dn D_4,2,$421
 dn ___,0,$422
 dn ___,0,$423
 dn ___,0,$000
 dn D_3,2,$000
 dn ___,0,$C03
 dn D_4,2,$000
 dn ___,0,$C03
 dn D_3,2,$000
 dn ___,0,$C03
 dn E_3,2,$000
 dn ___,0,$C03
 dn E_4,2,$421
 dn ___,0,$422
 dn ___,0,$423
 dn ___,0,$C03
 dn E_4,2,$000
 dn ___,0,$C03
 dn F#3,2,$000
 dn ___,0,$C03
 dn F#4,2,$421
 dn ___,0,$422
 dn ___,0,$423
 dn ___,0,$C03
 dn F#4,2,$000
 dn ___,0,$000
 dn F#3,2,$000
 dn ___,0,$C03
 dn F#4,2,$000
 dn ___,0,$C03
 dn F#3,2,$000
 dn ___,0,$C03
 dn A_4,2,$421
 dn ___,0,$422
 dn ___,0,$423
 dn ___,0,$000
 dn A_3,2,$000
 dn ___,0,$C03
 dn A_4,2,$000
 dn ___,0,$C03
 dn A_3,2,$000
 dn ___,0,$C03
 dn E_3,2,$000
 dn ___,0,$C03
 dn E_4,2,$421
 dn ___,0,$422
 dn ___,0,$423
 dn ___,0,$C03
 dn E_4,2,$000
 dn ___,0,$C03

P3:
 dn A_5,2,$E03
 dn ___,0,$000
 dn A_5,2,$E03
 dn ___,0,$000
 dn C_5,1,$000
 dn ___,0,$000
 dn A_5,2,$E03
 dn ___,0,$000
 dn A_5,2,$E01
 dn ___,0,$000
 dn A_5,2,$E03
 dn ___,0,$000
 dn C_5,1,$000
 dn ___,0,$000
 dn A_5,2,$E03
 dn ___,0,$000
 dn A_5,2,$E01
 dn ___,0,$000
 dn A_5,2,$E03
 dn ___,0,$000
 dn C_5,1,$000
 dn ___,0,$000
 dn A_5,2,$E03
 dn ___,0,$000
 dn A_5,2,$E03
 dn ___,0,$000
 dn A_5,2,$E03
 dn ___,0,$000
 dn C_5,1,$000
 dn ___,0,$000
 dn A_5,2,$E03
 dn ___,0,$000
 dn A_5,2,$E03
 dn ___,0,$000
 dn A_5,2,$E03
 dn ___,0,$000
 dn C_5,1,$000
 dn ___,0,$000
 dn A_5,2,$E03
 dn ___,0,$000
 dn A_5,2,$E01
 dn ___,0,$000
 dn A_5,2,$E03
 dn ___,0,$000
 dn C_5,1,$000
 dn ___,0,$000
 dn A_5,2,$E03
 dn ___,0,$000
 dn A_5,2,$E01
 dn ___,0,$000
 dn A_5,2,$E03
 dn ___,0,$000
 dn C_5,1,$000
 dn ___,0,$000
 dn A_5,2,$E03
 dn ___,0,$000
 dn A_5,2,$E03
 dn ___,0,$000
 dn A_5,2,$E03
 dn ___,0,$000
 dn C_5,1,$000
 dn ___,0,$000
 dn A_5,2,$E03
 dn ___,0,$000

P4:
 dn ___,0,$A05
 dn ___,0,$A05
 dn E_4,9,$000
 dn F#4,9,$30F
 dn ___,0,$30F
 dn ___,0,$000
 dn A_4,9,$000
 dn ___,0,$8EF
 dn A_4,9,$C06
 dn ___,0,$8FF
 dn B_4,9,$000
 dn ___,0,$8EF
 dn A_4,9,$C06
 dn ___,0,$8FF
 dn B_4,9,$000
 dn C#5,9,$30F
 dn ___,0,$30F
 dn ___,0,$000
 dn E_5,9,$000
 dn ___,0,$000
 dn A_4,9,$000
 dn ___,0,$000
 dn A_4,9,$A04
 dn ___,0,$000
 dn G#4,9,$000
 dn ___,0,$000
 dn E_4,9,$000
 dn ___,0,$000
 dn ___,0,$8EF
 dn E_4,9,$C07
 dn F#4,9,$8FF
 dn ___,0,$8EF
 dn F#4,9,$C07
 dn ___,0,$8FF
 dn G#4,9,$000
 dn A_4,9,$30F
 dn ___,0,$30F
 dn ___,0,$000
 dn A_4,9,$000
 dn ___,0,$8EF
 dn A_4,9,$C07
 dn ___,0,$8FF
 dn G#4,9,$000
 dn ___,0,$000
 dn ___,0,$000
 dn ___,0,$000
 dn E_4,9,$412
 dn ___,0,$412
 dn ___,0,$412
 dn ___,0,$412
 dn C#4,9,$000
 dn ___,0,$000
 dn E_4,9,$8EF
 dn C#4,9,$C07
 dn E_4,9,$8EF
 dn E_4,9,$C07
 dn F#4,9,$8FF
 dn ___,0,$000
 dn G#4,9,$000
 dn ___,0,$000
 dn ___,0,$000
 dn ___,0,$000
 dn A_4,9,$30F
 dn ___,0,$30F

P8:
 dn ___,0,$A05
 dn ___,0,$A05
 dn G#4,9,$000
 dn A_4,9,$30F
 dn ___,0,$30F
 dn ___,0,$000
 dn A_4,9,$000
 dn ___,0,$8EF
 dn A_4,9,$C07
 dn ___,0,$8FF
 dn G#4,9,$000
 dn ___,0,$000
 dn ___,0,$000
 dn ___,0,$000
 dn G#4,9,$000
 dn A_4,9,$30F
 dn ___,0,$30F
 dn ___,0,$000
 dn G#4,9,$000
 dn ___,0,$000
 dn F#4,9,$000
 dn ___,0,$8EF
 dn F#4,9,$C07
 dn ___,0,$8FF
 dn F#4,9,$000
 dn ___,0,$000
 dn G#4,9,$000
 dn ___,0,$000
 dn ___,0,$8EF
 dn G#4,9,$C07
 dn A_4,9,$8FF
 dn ___,0,$8EF
 dn A_4,9,$C07
 dn ___,0,$8FF
 dn G#4,9,$000
 dn A_4,9,$30F
 dn ___,0,$30F
 dn ___,0,$000
 dn A_4,9,$000
 dn ___,0,$8EF
 dn A_4,9,$C07
 dn ___,0,$8FF
 dn B_4,9,$000
 dn ___,0,$000
 dn ___,0,$000
 dn ___,0,$000
 dn B_4,9,$412
 dn C#5,9,$412
 dn ___,0,$412
 dn ___,0,$412
 dn E_5,9,$000
 dn ___,0,$000
 dn C#5,9,$8EF
 dn E_5,9,$C07
 dn C#5,9,$8EF
 dn C#5,9,$C07
 dn B_4,9,$8FF
 dn ___,0,$000
 dn G#4,9,$000
 dn ___,0,$000
 dn ___,0,$000
 dn ___,0,$000
 dn A_4,9,$30F
 dn ___,0,$000

P9:
 dn A_5,2,$E03
 dn ___,0,$000
 dn A_5,2,$E03
 dn ___,0,$000
 dn A_5,2,$000
 dn ___,0,$000
 dn A_5,2,$E03
 dn ___,0,$000
 dn A_5,2,$E01
 dn ___,0,$000
 dn A_5,2,$E03
 dn ___,0,$000
 dn A_5,2,$000
 dn ___,0,$000
 dn A_5,2,$E03
 dn ___,0,$000
 dn A_5,2,$E01
 dn ___,0,$000
 dn A_5,2,$E03
 dn ___,0,$000
 dn A_5,2,$000
 dn ___,0,$000
 dn A_5,2,$E03
 dn ___,0,$000
 dn A_5,2,$E03
 dn ___,0,$000
 dn A_5,2,$E03
 dn ___,0,$000
 dn A_5,2,$000
 dn ___,0,$000
 dn A_5,2,$E03
 dn ___,0,$000
 dn A_5,2,$E03
 dn ___,0,$000
 dn A_5,2,$E03
 dn ___,0,$000
 dn A_5,2,$000
 dn ___,0,$000
 dn A_5,2,$E03
 dn ___,0,$000
 dn A_5,2,$E01
 dn ___,0,$000
 dn A_5,2,$E03
 dn ___,0,$000
 dn A_5,2,$000
 dn ___,0,$000
 dn A_5,2,$E03
 dn ___,0,$000
 dn A_5,2,$E01
 dn ___,0,$000
 dn A_5,2,$E03
 dn ___,0,$000
 dn A_5,2,$000
 dn ___,0,$000
 dn A_5,2,$E03
 dn ___,0,$000
 dn A_5,2,$E03
 dn ___,0,$000
 dn A_5,2,$E03
 dn ___,0,$000
 dn A_5,2,$000
 dn ___,0,$000
 dn A_5,2,$E03
 dn ___,0,$000

P10:
 dn C#5,5,$000
 dn ___,0,$C03
 dn C#5,5,$000
 dn ___,0,$000
 dn ___,0,$000
 dn ___,0,$C03
 dn C#5,5,$000
 dn ___,0,$C03
 dn ___,0,$000
 dn ___,0,$000
 dn C#5,5,$000
 dn ___,0,$C03
 dn C#5,5,$000
 dn ___,0,$C03
 dn A_4,5,$000
 dn ___,0,$000
 dn ___,0,$000
 dn ___,0,$C03
 dn A_4,5,$000
 dn ___,0,$C03
 dn A_4,5,$000
 dn ___,0,$C03
 dn A_4,5,$000
 dn ___,0,$000
 dn B_4,5,$000
 dn ___,0,$C03
 dn B_4,5,$000
 dn ___,0,$000
 dn ___,0,$000
 dn ___,0,$C03
 dn B_4,5,$000
 dn ___,0,$C03
 dn C#5,5,$000
 dn ___,0,$C03
 dn C#5,5,$000
 dn ___,0,$000
 dn ___,0,$000
 dn ___,0,$C03
 dn C#5,5,$000
 dn ___,0,$C03
 dn ___,0,$000
 dn ___,0,$000
 dn C#5,5,$000
 dn ___,0,$C03
 dn C#5,5,$000
 dn ___,0,$C03
 dn E_5,5,$000
 dn ___,0,$000
 dn ___,0,$000
 dn ___,0,$C03
 dn E_5,5,$000
 dn ___,0,$C03
 dn E_5,5,$000
 dn ___,0,$C03
 dn E_5,5,$000
 dn ___,0,$000
 dn B_4,5,$000
 dn ___,0,$C03
 dn B_4,5,$000
 dn ___,0,$000
 dn ___,0,$000
 dn ___,0,$C03
 dn B_4,5,$000
 dn ___,0,$C03

P11:
 dn F#4,5,$000
 dn F#4,5,$C03
 dn F#4,5,$000
 dn ___,0,$000
 dn ___,0,$000
 dn F#4,5,$C03
 dn F#4,5,$000
 dn F#4,5,$C03
 dn ___,0,$000
 dn ___,0,$000
 dn F#4,5,$000
 dn F#4,5,$C03
 dn F#4,5,$000
 dn F#4,5,$C03
 dn D_4,5,$000
 dn ___,0,$000
 dn ___,0,$000
 dn D_4,5,$C03
 dn D_4,5,$000
 dn D_4,5,$C03
 dn D_4,5,$000
 dn D_4,5,$C03
 dn D_4,5,$000
 dn ___,0,$000
 dn E_4,5,$000
 dn E_4,5,$C03
 dn E_4,5,$000
 dn ___,0,$000
 dn ___,0,$000
 dn E_4,5,$C03
 dn E_4,5,$000
 dn E_4,5,$C03
 dn F#4,5,$000
 dn F#4,5,$C03
 dn F#4,5,$000
 dn ___,0,$000
 dn ___,0,$000
 dn F#4,5,$C03
 dn F#4,5,$000
 dn F#4,5,$C03
 dn ___,0,$000
 dn ___,0,$000
 dn F#4,5,$000
 dn F#4,5,$C03
 dn F#4,5,$000
 dn F#4,5,$C03
 dn A_4,5,$000
 dn ___,0,$000
 dn ___,0,$000
 dn A_4,5,$C03
 dn A_4,5,$000
 dn A_4,5,$C03
 dn A_4,5,$000
 dn A_4,5,$C03
 dn A_4,5,$000
 dn ___,0,$000
 dn E_4,5,$000
 dn E_4,5,$C03
 dn E_4,5,$000
 dn ___,0,$000
 dn ___,0,$000
 dn E_4,5,$C03
 dn E_4,5,$000
 dn E_4,5,$C03

P12:
 dn ___,0,$8BD
 dn ___,0,$000
 dn ___,0,$000
 dn ___,0,$000
 dn ___,0,$000
 dn ___,0,$000
 dn ___,0,$000
 dn ___,0,$8AD
 dn ___,0,$A01
 dn ___,0,$8BC
 dn ___,0,$A01
 dn ___,0,$8AD
 dn ___,0,$A01
 dn ___,0,$8BC
 dn ___,0,$A01
 dn ___,0,$8AD
 dn ___,0,$A01
 dn ___,0,$8BC
 dn ___,0,$A01
 dn ___,0,$8FF
 dn B_4,9,$000
 dn C#5,9,$30F
 dn ___,0,$30F
 dn ___,0,$000
 dn B_4,9,$000
 dn ___,0,$000
 dn ___,0,$000
 dn ___,0,$000
 dn G#4,9,$000
 dn ___,0,$000
 dn ___,0,$000
 dn G#4,9,$C03
 dn A_4,9,$000
 dn ___,0,$000
 dn ___,0,$000
 dn ___,0,$000
 dn ___,0,$000
 dn ___,0,$000
 dn ___,0,$000
 dn ___,0,$000
 dn ___,0,$8AD
 dn ___,0,$A01
 dn ___,0,$8BC
 dn ___,0,$A01
 dn ___,0,$8AD
 dn ___,0,$A01
 dn ___,0,$8BC
 dn ___,0,$A01
 dn ___,0,$8AD
 dn ___,0,$A01
 dn ___,0,$8BC
 dn ___,0,$A01
 dn G#4,9,$8FF
 dn A_4,9,$000
 dn ___,0,$000
 dn ___,0,$000
 dn G#4,9,$000
 dn ___,0,$000
 dn ___,0,$000
 dn ___,0,$000
 dn E_4,9,$000
 dn ___,0,$000
 dn ___,0,$000
 dn E_4,9,$C03

P13:
 dn F#4,9,$000
 dn ___,0,$000
 dn ___,0,$000
 dn ___,0,$000
 dn ___,0,$000
 dn ___,0,$000
 dn ___,0,$000
 dn ___,0,$000
 dn ___,0,$8AD
 dn ___,0,$A01
 dn ___,0,$8BC
 dn ___,0,$A01
 dn ___,0,$8AD
 dn ___,0,$A01
 dn ___,0,$8BC
 dn ___,0,$A01
 dn ___,0,$8AD
 dn ___,0,$A01
 dn ___,0,$8BC
 dn ___,0,$A01
 dn ___,0,$8FF
 dn ___,0,$8AD
 dn ___,0,$A01
 dn ___,0,$8BC
 dn ___,0,$A01
 dn ___,0,$8AD
 dn ___,0,$A01
 dn ___,0,$8BC
 dn ___,0,$A01
 dn ___,0,$8AD
 dn ___,0,$A01
 dn ___,0,$8BC
 dn ___,0,$A01
 dn ___,0,$8FF
 dn ___,0,$8AD
 dn ___,0,$A01
 dn ___,0,$8BC
 dn ___,0,$A01
 dn ___,0,$8AD
 dn ___,0,$A01
 dn ___,0,$8BC
 dn ___,0,$A01
 dn ___,0,$8AD
 dn ___,0,$A01
 dn ___,0,$8BC
 dn ___,0,$A01
 dn ___,0,$8FF
 dn ___,0,$000
 dn ___,0,$000
 dn ___,0,$000
 dn ___,0,$000
 dn ___,0,$000
 dn ___,0,$000
 dn ___,0,$000
 dn ___,0,$000
 dn ___,0,$000
 dn B_4,9,$000
 dn C#5,9,$30F
 dn ___,0,$30F
 dn ___,0,$000
 dn E_5,9,$000
 dn ___,0,$000
 dn ___,0,$000
 dn ___,0,$000

P14:
 dn E_5,9,$000
 dn F#5,9,$30F
 dn ___,0,$30F
 dn ___,0,$000
 dn ___,0,$000
 dn ___,0,$000
 dn ___,0,$000
 dn ___,0,$000
 dn ___,0,$8AD
 dn ___,0,$A01
 dn ___,0,$8BC
 dn ___,0,$A01
 dn ___,0,$8AD
 dn ___,0,$A01
 dn F#5,9,$8FF
 dn ___,0,$000
 dn ___,0,$000
 dn ___,0,$000
 dn G#5,9,$000
 dn ___,0,$000
 dn ___,0,$000
 dn ___,0,$000
 dn G#5,9,$000
 dn A_5,9,$30F
 dn ___,0,$30F
 dn A_5,9,$C03
 dn G#5,9,$000
 dn ___,0,$000
 dn ___,0,$000
 dn G#5,9,$C03
 dn E_5,9,$000
 dn ___,0,$000
 dn ___,0,$000
 dn ___,0,$000
 dn C#5,9,$000
 dn ___,0,$000
 dn ___,0,$000
 dn ___,0,$000
 dn ___,0,$000
 dn ___,0,$000
 dn C#5,9,$8AD
 dn ___,0,$A01
 dn ___,0,$8BC
 dn ___,0,$A01
 dn B_4,9,$8FF
 dn C#5,9,$30F
 dn ___,0,$30F
 dn ___,0,$000
 dn B_4,9,$000
 dn ___,0,$000
 dn ___,0,$000
 dn ___,0,$000
 dn A_4,9,$000
 dn ___,0,$000
 dn ___,0,$000
 dn ___,0,$000
 dn G#4,9,$000
 dn ___,0,$000
 dn ___,0,$000
 dn G#4,9,$C03
 dn E_4,9,$000
 dn ___,0,$000
 dn ___,0,$000
 dn E_4,9,$C03

P15:
 dn E_4,9,$000
 dn F#4,9,$30F
 dn ___,0,$30F
 dn ___,0,$000
 dn ___,0,$000
 dn ___,0,$000
 dn ___,0,$000
 dn ___,0,$000
 dn ___,0,$8AD
 dn ___,0,$A01
 dn ___,0,$8BC
 dn ___,0,$A01
 dn ___,0,$8AD
 dn ___,0,$A01
 dn F#4,9,$8FF
 dn ___,0,$000
 dn ___,0,$000
 dn ___,0,$000
 dn G#4,9,$000
 dn ___,0,$000
 dn ___,0,$000
 dn ___,0,$000
 dn G#4,9,$000
 dn A_4,9,$30F
 dn ___,0,$30F
 dn A_4,9,$C03
 dn G#4,9,$000
 dn ___,0,$000
 dn ___,0,$000
 dn G#4,9,$C03
 dn A_4,9,$000
 dn ___,0,$000
 dn ___,0,$000
 dn ___,0,$000
 dn C#5,9,$000
 dn ___,0,$000
 dn ___,0,$000
 dn ___,0,$000
 dn ___,0,$000
 dn ___,0,$000
 dn ___,0,$8AD
 dn ___,0,$A01
 dn ___,0,$8BC
 dn ___,0,$A01
 dn B_4,9,$8FF
 dn C#5,9,$30F
 dn ___,0,$30F
 dn ___,0,$000
 dn E_5,9,$000
 dn ___,0,$000
 dn ___,0,$000
 dn ___,0,$000
 dn F#5,9,$000
 dn ___,0,$000
 dn ___,0,$000
 dn ___,0,$000
 dn G#5,9,$000
 dn ___,0,$000
 dn ___,0,$000
 dn G#5,9,$C03
 dn E_5,9,$000
 dn ___,0,$000
 dn ___,0,$000
 dn E_5,9,$C03

P16:
 dn E_5,9,$000
 dn F#5,9,$30F
 dn ___,0,$300
 dn ___,0,$000
 dn ___,0,$000
 dn ___,0,$000
 dn ___,0,$000
 dn ___,0,$000
 dn ___,0,$8FE
 dn ___,0,$A01
 dn ___,0,$8EF
 dn ___,0,$A01
 dn ___,0,$8FE
 dn ___,0,$A01
 dn ___,0,$8EF
 dn ___,0,$A01
 dn ___,0,$8FE
 dn ___,0,$A01
 dn ___,0,$8EF
 dn ___,0,$A01
 dn ___,0,$8FE
 dn ___,0,$A01
 dn ___,0,$8EF
 dn ___,0,$A01
 dn ___,0,$8FE
 dn ___,0,$A01
 dn ___,0,$8EF
 dn ___,0,$A01
 dn ___,0,$8FE
 dn ___,0,$A01
 dn ___,0,$8FF
 dn ___,0,$A01
 dn F#5,1,$037
 dn ___,0,$037
 dn ___,0,$037
 dn ___,0,$037
 dn ___,0,$037
 dn ___,0,$037
 dn F#5,1,$037
 dn ___,0,$037
 dn ___,0,$037
 dn ___,0,$037
 dn F#5,1,$037
 dn ___,0,$037
 dn ___,0,$037
 dn ___,0,$037
 dn A_5,1,$047
 dn ___,0,$047
 dn ___,0,$047
 dn ___,0,$047
 dn A_5,1,$047
 dn ___,0,$047
 dn ___,0,$047
 dn ___,0,$047
 dn ___,0,$047
 dn ___,0,$047
 dn E_5,1,$047
 dn ___,0,$047
 dn ___,0,$047
 dn ___,0,$047
 dn E_5,1,$047
 dn ___,0,$047
 dn E_5,1,$047
 dn ___,0,$047

duty_instruments:
itSquareinst1: db 8,0,99,128
itSquareinst2: db 8,64,161,128
itSquareinst3: db 8,192,165,128
itSquareinst4: db 8,192,240,128
itSquareinst5: db 8,128,112,128
itSquareinst6: db 8,64,241,128
itSquareinst7: db 8,128,241,128
itSquareinst8: db 8,192,241,128
itSquareinst9: db 8,0,240,128
itSquareinst10: db 8,128,240,128
itSquareinst11: db 8,128,240,128
itSquareinst12: db 8,128,240,128
itSquareinst13: db 8,128,240,128
itSquareinst14: db 8,128,240,128
itSquareinst15: db 8,128,240,128


wave_instruments:
itWaveinst1: db 0,64,0,128
itWaveinst2: db 0,32,1,128
itWaveinst3: db 0,32,2,128
itWaveinst4: db 0,32,3,128
itWaveinst5: db 0,64,2,128
itWaveinst6: db 0,32,5,128
itWaveinst7: db 0,32,6,128
itWaveinst8: db 0,32,7,128
itWaveinst9: db 0,32,8,128
itWaveinst10: db 0,32,9,128
itWaveinst11: db 0,32,10,128
itWaveinst12: db 0,32,11,128
itWaveinst13: db 0,32,12,128
itWaveinst14: db 0,32,13,128
itWaveinst15: db 0,32,14,128


noise_instruments:
itNoiseinst1: db 241,192,17,8,-3,8,1,1
itNoiseinst2: db 128,57,27,28,27,26,27,26
itNoiseinst3: db 241,121,20,20,18,17,14,11
itNoiseinst4: db 240,0,0,0,0,0,0,0
itNoiseinst5: db 240,0,0,0,0,0,0,0
itNoiseinst6: db 240,0,0,0,0,0,0,0
itNoiseinst7: db 240,0,0,0,0,0,0,0
itNoiseinst8: db 240,0,0,0,0,0,0,0
itNoiseinst9: db 240,0,0,0,0,0,0,0
itNoiseinst10: db 240,0,0,0,0,0,0,0
itNoiseinst11: db 240,0,0,0,0,0,0,0
itNoiseinst12: db 240,0,0,0,0,0,0,0
itNoiseinst13: db 240,0,0,0,0,0,0,0
itNoiseinst14: db 240,0,0,0,0,0,0,0
itNoiseinst15: db 240,0,0,0,0,0,0,0


routines:
__hUGE_Routine_0:

__end_hUGE_Routine_0:
ret

__hUGE_Routine_1:

__end_hUGE_Routine_1:
ret

__hUGE_Routine_2:

__end_hUGE_Routine_2:
ret

__hUGE_Routine_3:

__end_hUGE_Routine_3:
ret

__hUGE_Routine_4:

__end_hUGE_Routine_4:
ret

__hUGE_Routine_5:

__end_hUGE_Routine_5:
ret

__hUGE_Routine_6:

__end_hUGE_Routine_6:
ret

__hUGE_Routine_7:

__end_hUGE_Routine_7:
ret

__hUGE_Routine_8:

__end_hUGE_Routine_8:
ret

__hUGE_Routine_9:

__end_hUGE_Routine_9:
ret

__hUGE_Routine_10:

__end_hUGE_Routine_10:
ret

__hUGE_Routine_11:

__end_hUGE_Routine_11:
ret

__hUGE_Routine_12:

__end_hUGE_Routine_12:
ret

__hUGE_Routine_13:

__end_hUGE_Routine_13:
ret

__hUGE_Routine_14:

__end_hUGE_Routine_14:
ret

__hUGE_Routine_15:

__end_hUGE_Routine_15:
ret

waves:
wave0: db 0,0,255,255,255,255,255,255,255,255,255,255,255,255,255,255
wave1: db 51,48,17,7,120,137,153,85,171,187,187,187,187,187,165,85
wave2: db 0,0,0,0,0,0,0,0,255,255,255,255,255,255,255,255
wave3: db 0,0,0,0,0,0,0,0,0,0,0,0,255,255,255,255
wave4: db 0,1,18,35,52,69,86,103,120,137,154,171,188,205,222,239
wave5: db 254,220,186,152,118,84,50,16,18,52,86,120,154,188,222,255
wave6: db 122,205,219,117,33,19,104,189,220,151,65,1,71,156,221,184
wave7: db 15,15,15,15,15,15,15,15,15,15,15,15,15,15,15,15
wave8: db 254,252,250,248,246,244,242,240,242,244,246,248,250,252,254,255
wave9: db 254,221,204,187,170,153,136,119,138,189,241,36,87,138,189,238
wave10: db 132,17,97,237,87,71,90,173,206,163,23,121,221,32,3,71
wave11: db 184,98,22,176,173,112,219,98,65,121,23,30,6,68,34,181
wave12: db 153,122,138,136,77,228,165,107,216,19,41,114,231,55,44,226
wave13: db 82,108,51,37,168,205,104,187,188,91,185,224,109,230,53,44
wave14: db 205,19,195,94,25,145,185,210,176,22,84,98,80,94,19,148
wave15: db 194,212,115,83,36,217,125,211,140,93,53,225,55,212,13,148

