include "hUGE.inc"

SECTION "boss theme", ROMX

bossTheme::
db 4
dw order_cnt
dw order1, order2, order3, order4
dw duty_instruments, wave_instruments, noise_instruments
dw routines
dw waves

order_cnt: db 2
order1: dw P0
order2: dw P1
order3: dw P2
order4: dw P3

P0:
 dn ___,0,$000
 dn ___,0,$000
 dn ___,0,$000
 dn ___,0,$000
 dn ___,0,$000
 dn ___,0,$000
 dn ___,0,$000
 dn ___,0,$000
 dn ___,0,$000
 dn ___,0,$000
 dn ___,0,$000
 dn ___,0,$000
 dn ___,0,$000
 dn ___,0,$000
 dn ___,0,$000
 dn ___,0,$000
 dn ___,0,$000
 dn ___,0,$000
 dn ___,0,$000
 dn ___,0,$000
 dn ___,0,$000
 dn ___,0,$000
 dn ___,0,$000
 dn ___,0,$000
 dn ___,0,$000
 dn ___,0,$000
 dn ___,0,$000
 dn ___,0,$000
 dn ___,0,$000
 dn ___,0,$000
 dn ___,0,$000
 dn ___,0,$000
 dn ___,0,$000
 dn ___,0,$000
 dn ___,0,$000
 dn ___,0,$000
 dn ___,0,$000
 dn ___,0,$000
 dn ___,0,$000
 dn ___,0,$000
 dn ___,0,$000
 dn ___,0,$000
 dn ___,0,$000
 dn ___,0,$000
 dn ___,0,$000
 dn ___,0,$000
 dn ___,0,$000
 dn ___,0,$000
 dn ___,0,$000
 dn ___,0,$000
 dn ___,0,$000
 dn ___,0,$000
 dn ___,0,$000
 dn ___,0,$000
 dn ___,0,$000
 dn ___,0,$000
 dn ___,0,$000
 dn ___,0,$000
 dn ___,0,$000
 dn ___,0,$000
 dn ___,0,$000
 dn ___,0,$000
 dn ___,0,$000
 dn ___,0,$000

P1:
 dn C#5,1,$C0C
 dn ___,0,$000
 dn ___,0,$000
 dn ___,0,$A02
 dn ___,0,$A30
 dn ___,0,$000
 dn C#5,1,$C0C
 dn ___,0,$A02
 dn ___,0,$A01
 dn ___,0,$E00
 dn ___,0,$000
 dn ___,0,$000
 dn ___,0,$000
 dn ___,0,$000
 dn ___,0,$000
 dn ___,0,$000
 dn ___,0,$000
 dn ___,0,$000
 dn ___,0,$000
 dn ___,0,$000
 dn D#5,1,$C0C
 dn ___,0,$A02
 dn ___,0,$A01
 dn ___,0,$E00
 dn E_5,1,$C0C
 dn ___,0,$A02
 dn ___,0,$A01
 dn ___,0,$E00
 dn ___,0,$000
 dn ___,0,$000
 dn ___,0,$000
 dn ___,0,$000
 dn C#5,1,$C0C
 dn ___,0,$000
 dn ___,0,$000
 dn ___,0,$A02
 dn ___,0,$A30
 dn ___,0,$000
 dn C#5,1,$C0C
 dn ___,0,$A02
 dn ___,0,$A01
 dn ___,0,$E00
 dn ___,0,$000
 dn ___,0,$000
 dn ___,0,$000
 dn ___,0,$000
 dn ___,0,$000
 dn ___,0,$000
 dn ___,0,$000
 dn ___,0,$000
 dn ___,0,$000
 dn ___,0,$000
 dn E_5,1,$C0C
 dn ___,0,$A02
 dn ___,0,$A01
 dn ___,0,$E00
 dn D#5,1,$C0C
 dn ___,0,$A02
 dn ___,0,$A01
 dn ___,0,$E00
 dn ___,0,$000
 dn ___,0,$000
 dn ___,0,$000
 dn ___,0,$000

P2:
 dn C#4,1,$C0A
 dn ___,0,$000
 dn ___,0,$000
 dn ___,0,$000
 dn E_4,1,$C0A
 dn ___,0,$000
 dn C#4,1,$C0A
 dn ___,0,$000
 dn E_4,1,$C0A
 dn ___,0,$000
 dn ___,0,$000
 dn ___,0,$000
 dn ___,0,$000
 dn ___,0,$000
 dn ___,0,$000
 dn ___,0,$000
 dn ___,0,$000
 dn ___,0,$E00
 dn ___,0,$000
 dn ___,0,$000
 dn C#4,1,$C0A
 dn ___,0,$000
 dn ___,0,$E00
 dn ___,0,$000
 dn D#4,1,$C0A
 dn ___,0,$000
 dn ___,0,$000
 dn ___,0,$E00
 dn ___,0,$000
 dn ___,0,$000
 dn ___,0,$000
 dn ___,0,$000
 dn C#4,1,$C0A
 dn ___,0,$000
 dn ___,0,$000
 dn ___,0,$000
 dn E_4,1,$C0A
 dn ___,0,$000
 dn C#4,1,$C0A
 dn ___,0,$000
 dn E_4,1,$C0A
 dn ___,0,$000
 dn ___,0,$000
 dn ___,0,$000
 dn ___,0,$000
 dn ___,0,$000
 dn ___,0,$000
 dn ___,0,$000
 dn ___,0,$000
 dn ___,0,$E00
 dn ___,0,$000
 dn ___,0,$000
 dn C#4,1,$C0A
 dn ___,0,$000
 dn ___,0,$E00
 dn ___,0,$000
 dn D#4,1,$C0A
 dn ___,0,$000
 dn ___,0,$000
 dn ___,0,$000
 dn C#4,1,$C0A
 dn ___,0,$000
 dn ___,0,$E00
 dn ___,0,$000

P3:
 dn E_6,6,$C04
 dn ___,0,$000
 dn E_6,6,$C04
 dn ___,0,$000
 dn ___,0,$000
 dn ___,0,$E00
 dn ___,0,$000
 dn ___,0,$000
 dn B_6,6,$C04
 dn ___,0,$000
 dn ___,0,$000
 dn E_6,6,$C04
 dn ___,0,$000
 dn ___,0,$E00
 dn ___,0,$000
 dn ___,0,$000
 dn C_7,6,$C04
 dn ___,0,$E01
 dn C_7,6,$C04
 dn ___,0,$E01
 dn E_6,6,$C04
 dn ___,0,$000
 dn ___,0,$E00
 dn ___,0,$000
 dn B_6,6,$C04
 dn ___,0,$000
 dn ___,0,$000
 dn ___,0,$E00
 dn ___,0,$000
 dn ___,0,$000
 dn ___,0,$000
 dn ___,0,$000
 dn E_6,6,$C04
 dn ___,0,$000
 dn E_6,6,$C04
 dn ___,0,$000
 dn ___,0,$000
 dn ___,0,$E00
 dn ___,0,$000
 dn ___,0,$000
 dn B_6,6,$C04
 dn ___,0,$000
 dn ___,0,$000
 dn E_6,6,$C04
 dn ___,0,$000
 dn ___,0,$E00
 dn ___,0,$000
 dn ___,0,$000
 dn C_7,6,$C04
 dn ___,0,$E01
 dn C_7,6,$C04
 dn ___,0,$E01
 dn E_6,6,$C04
 dn ___,0,$000
 dn ___,0,$E00
 dn ___,0,$000
 dn B_6,6,$C04
 dn ___,0,$000
 dn ___,0,$000
 dn ___,0,$E00
 dn B_6,6,$C04
 dn ___,0,$000
 dn ___,0,$E00
 dn ___,0,$000