include "hUGE.inc"

SECTION "desert theme", ROMX

desertTheme::
db 8
dw order_cnt
dw outOfOrder, order2, order3, outOfOrder
dw duty_instruments, wave_instruments, noise_instruments
dw routines
dw waves

order_cnt: db 18
order2: dw P1,P6,P6,P3,P1,P5,P5,P4,P2
order3: dw P2,P5,P5,P4,P2,P6,P6,P3,P2

P1:
 dn C_5,2,$C0C
 dn ___,0,$000
 dn ___,0,$000
 dn ___,0,$A03
 dn ___,0,$A03
 dn ___,0,$A03
 dn ___,0,$E00
 dn ___,0,$000
 dn C_5,2,$C0C
 dn ___,0,$000
 dn D#5,4,$C0C
 dn ___,0,$E00
 dn ___,0,$000
 dn D#5,2,$C0C
 dn G_5,2,$C0C
 dn ___,0,$000
 dn ___,0,$000
 dn ___,0,$000
 dn ___,0,$000
 dn ___,0,$000
 dn ___,0,$A03
 dn ___,0,$A03
 dn ___,0,$A03
 dn ___,0,$A03
 dn ___,0,$E00
 dn ___,0,$000
 dn ___,0,$000
 dn ___,0,$000
 dn F_5,2,$C0C
 dn ___,0,$000
 dn ___,0,$000
 dn ___,0,$000
 dn ___,0,$000
 dn ___,0,$000
 dn ___,0,$010
 dn ___,0,$001
 dn G_5,2,$C0C
 dn ___,0,$000
 dn F_5,2,$C0C
 dn ___,0,$E00
 dn ___,0,$000
 dn D#5,2,$C0C
 dn C_5,2,$C0C
 dn ___,0,$000
 dn ___,0,$000
 dn ___,0,$000
 dn ___,0,$000
 dn ___,0,$000
 dn ___,0,$000
 dn ___,0,$000
 dn ___,0,$A04
 dn ___,0,$E00
 dn ___,0,$000
 dn ___,0,$000
 dn ___,0,$000
 dn ___,0,$000
 dn C_4,2,$C0C
 dn ___,0,$A03
 dn D#4,2,$C0C
 dn ___,0,$A03
 dn C_4,2,$C0C
 dn ___,0,$A03
 dn D#4,2,$C0C
 dn ___,0,$E00

P2:
 dn C_5,2,$C0A
 dn ___,0,$E00
 dn ___,0,$000
 dn ___,0,$000
 dn ___,0,$000
 dn C_5,2,$C0A
 dn C_5,2,$C0A
 dn C_5,2,$C0A
 dn ___,0,$E00
 dn C_4,1,$C0A
 dn C_4,1,$C0A
 dn C_4,1,$C0A
 dn C_4,1,$C0A
 dn C_4,1,$C0A
 dn G_4,2,$C0A
 dn ___,0,$E00
 dn ___,0,$000
 dn ___,0,$000
 dn ___,0,$000
 dn G_4,2,$C0A
 dn G_4,2,$C0A
 dn G_4,2,$C0A
 dn ___,0,$E00
 dn G_3,1,$C0A
 dn G_3,1,$C0A
 dn G_3,1,$C0A
 dn G_3,1,$C0A
 dn G_3,1,$C0A
 dn F_5,2,$C0A
 dn ___,0,$E00
 dn ___,0,$000
 dn ___,0,$000
 dn ___,0,$000
 dn F_5,2,$C0A
 dn F_5,2,$C0A
 dn F_5,2,$C0A
 dn ___,0,$E00
 dn F_4,1,$C0A
 dn F_4,1,$C0A
 dn F_4,1,$C0A
 dn F_4,1,$C0A
 dn F_4,1,$C0A
 dn C_5,2,$C0A
 dn ___,0,$E00
 dn ___,0,$000
 dn ___,0,$000
 dn ___,0,$000
 dn C_5,2,$C0A
 dn C_5,2,$C0A
 dn C_5,2,$C0A
 dn ___,0,$E00
 dn C_4,1,$C0A
 dn C_4,1,$C0A
 dn C_4,1,$C0A
 dn C_4,1,$C0A
 dn C_4,1,$C0A
 dn C_5,2,$C0A
 dn ___,0,$E00
 dn D#5,2,$C0A
 dn ___,0,$E00
 dn C_5,2,$C0A
 dn ___,0,$E00
 dn D#5,2,$C0A
 dn ___,0,$E00

P3:
 dn C_5,2,$C0C
 dn ___,0,$000
 dn ___,0,$000
 dn ___,0,$000
 dn ___,0,$000
 dn ___,0,$000
 dn C_5,2,$C09
 dn C_5,2,$C06
 dn D#4,2,$C0C
 dn ___,0,$A03
 dn D#4,2,$C0C
 dn ___,0,$A03
 dn C_4,2,$C0C
 dn ___,0,$A03
 dn C_4,2,$C0C
 dn ___,0,$B00

P4:
 dn C_5,2,$C0B
 dn C_5,2,$C0B
 dn C_5,2,$C0B
 dn ___,0,$E00
 dn C_4,1,$C0A
 dn C_4,1,$C0A
 dn C_4,1,$C0A
 dn C_4,1,$C0A
 dn D#5,2,$C0A
 dn ___,0,$E00
 dn D#5,2,$C0A
 dn ___,0,$E00
 dn C_5,2,$C0A
 dn ___,0,$E00
 dn C_5,2,$C0A
 dn ___,0,$A03

P5:
 dn C_5,2,$C0A
 dn ___,0,$000
 dn ___,0,$000
 dn ___,0,$000
 dn ___,0,$000
 dn C_5,2,$C0A
 dn C_5,2,$C0A
 dn C_5,2,$C0A
 dn G_5,2,$C0A
 dn ___,0,$E00
 dn D#5,2,$C0A
 dn ___,0,$000
 dn ___,0,$000
 dn ___,0,$000
 dn F_5,2,$C0A
 dn ___,0,$000
 dn ___,0,$000
 dn ___,0,$000
 dn ___,0,$000
 dn F_5,2,$C0A
 dn F_5,2,$C0A
 dn F_5,2,$C0A
 dn F_5,2,$C0A
 dn ___,0,$E00

P6:
 dn C_4,2,$C0C
 dn ___,0,$000
 dn ___,0,$000
 dn ___,0,$000
 dn ___,0,$000
 dn ___,0,$000
 dn ___,0,$000
 dn C_4,2,$C0C
 dn G_4,2,$C0C
 dn ___,0,$000
 dn D#4,4,$C0C
 dn ___,0,$000
 dn ___,0,$000
 dn ___,0,$000
 dn F_4,2,$C0C
 dn ___,0,$000
 dn ___,0,$000
 dn ___,0,$000
 dn F_4,2,$C00
 dn ___,0,$000
 dn ___,0,$000
 dn ___,0,$000
 dn F_4,2,$C0C
 dn ___,0,$B00