include "hUGE.inc"

SECTION "desert night theme", ROMX

desertNightTheme::
db 11
dw order_cnt
dw order1, order2, order3, order4
dw duty_instruments, wave_instruments, noise_instruments
dw routines
dw waves

order_cnt: db 10
order1: dw PE,PE,PE,PE,PE
order2: dw P1,P1,P1,P1,P1
order3: dw P2,P3,P2,P3,P1
order4: dw PE,PE,PE,PE,PE

P1:
 dn D#4,1,$C04
 dn ___,0,$A40
 dn ___,0,$A40
 dn ___,0,$A10
 dn ___,0,$A01
 dn ___,0,$A04
 dn ___,0,$A04
 dn ___,0,$A01
 dn C#4,1,$C04
 dn ___,0,$A40
 dn ___,0,$A40
 dn ___,0,$A10
 dn ___,0,$A01
 dn ___,0,$A04
 dn ___,0,$A04
 dn ___,0,$A01
 dn A#3,1,$C04
 dn ___,0,$A40
 dn ___,0,$A40
 dn ___,0,$A10
 dn ___,0,$A01
 dn ___,0,$A04
 dn ___,0,$A04
 dn ___,0,$A01
 dn G#3,1,$C04
 dn ___,0,$A40
 dn ___,0,$A40
 dn ___,0,$A10
 dn ___,0,$A01
 dn ___,0,$A04
 dn ___,0,$A04
 dn ___,0,$A01
 dn G#4,1,$C04
 dn ___,0,$A40
 dn ___,0,$A40
 dn ___,0,$A10
 dn ___,0,$A01
 dn ___,0,$A04
 dn ___,0,$A04
 dn ___,0,$A01
 dn C#4,1,$C04
 dn ___,0,$A40
 dn ___,0,$A40
 dn ___,0,$A10
 dn ___,0,$A01
 dn ___,0,$A04
 dn ___,0,$A04
 dn ___,0,$A01
 dn A#3,1,$C04
 dn ___,0,$A40
 dn ___,0,$A40
 dn ___,0,$A10
 dn ___,0,$A01
 dn ___,0,$A04
 dn ___,0,$A04
 dn ___,0,$A01
 dn G#3,1,$C04
 dn ___,0,$A40
 dn ___,0,$A40
 dn ___,0,$A10
 dn ___,0,$A01
 dn ___,0,$A04
 dn ___,0,$A04
 dn ___,0,$A01

P2:
 dn D#4,1,$C06
 dn ___,0,$E00
 dn ___,0,$C04
 dn ___,0,$000
 dn ___,0,$000
 dn ___,0,$E00
 dn ___,0,$C04
 dn ___,0,$E00
 dn C#4,1,$C06
 dn ___,0,$E00
 dn ___,0,$C04
 dn ___,0,$000
 dn ___,0,$000
 dn ___,0,$E00
 dn ___,0,$C04
 dn ___,0,$E00
 dn A#3,1,$C06
 dn ___,0,$E00
 dn ___,0,$C04
 dn ___,0,$000
 dn ___,0,$000
 dn ___,0,$E00
 dn ___,0,$C04
 dn ___,0,$E00
 dn G#3,1,$C06
 dn ___,0,$E00
 dn ___,0,$C04
 dn ___,0,$000
 dn ___,0,$000
 dn ___,0,$E00
 dn ___,0,$C04
 dn ___,0,$E00
 dn D#6,2,$C0C
 dn ___,0,$C0A
 dn ___,0,$C08
 dn ___,0,$E00
 dn ___,0,$000
 dn C#6,2,$C0C
 dn ___,0,$C0A
 dn ___,0,$C08
 dn ___,0,$E00
 dn ___,0,$000
 dn A#5,2,$C0C
 dn ___,0,$C0A
 dn ___,0,$C08
 dn ___,0,$E00
 dn ___,0,$000
 dn A#5,2,$C0C
 dn G#5,2,$C0C
 dn ___,0,$E00
 dn A#5,2,$C0C
 dn ___,0,$E00
 dn G#5,2,$C0C
 dn ___,0,$000
 dn A#5,2,$C0C
 dn ___,0,$E00
 dn G#5,2,$C0C
 dn ___,0,$E00
 dn D#5,2,$C0C
 dn ___,0,$C0A
 dn ___,0,$C08
 dn ___,0,$C04
 dn C#5,2,$C0C
 dn ___,0,$C0A

P3:
 dn D#6,2,$C0C
 dn ___,0,$C0A
 dn ___,0,$C08
 dn ___,0,$E00
 dn ___,0,$000
 dn C#6,2,$C0C
 dn ___,0,$C0A
 dn ___,0,$C08
 dn ___,0,$E00
 dn ___,0,$000
 dn A#5,2,$C0C
 dn ___,0,$C0A
 dn ___,0,$C08
 dn ___,0,$E00
 dn ___,0,$000
 dn A#5,2,$C0C
 dn G#5,2,$C0C
 dn ___,0,$E00
 dn A#5,2,$C0C
 dn ___,0,$E00
 dn G#5,2,$C0C
 dn ___,0,$000
 dn A#5,2,$C0C
 dn ___,0,$E00
 dn G#5,2,$C0C
 dn ___,0,$E00
 dn C_6,2,$C0C
 dn ___,0,$C0A
 dn ___,0,$C08
 dn ___,0,$E00
 dn ___,0,$000
 dn ___,0,$000
 dn C_6,2,$C0C
 dn C#6,2,$C0C
 dn C_6,2,$C0C
 dn ___,0,$E00
 dn C_6,2,$C0C
 dn C#6,2,$C0C
 dn C_6,2,$C0C
 dn ___,0,$E00
 dn A#5,2,$C0C
 dn ___,0,$E00
 dn G#5,2,$C0C
 dn A#5,2,$C0C
 dn ___,0,$C0A
 dn ___,0,$C08
 dn ___,0,$E00
 dn ___,0,$000
 dn A#3,1,$C06
 dn ___,0,$E00
 dn ___,0,$C04
 dn ___,0,$000
 dn ___,0,$000
 dn ___,0,$E00
 dn ___,0,$C04
 dn ___,0,$E00
 dn G#3,1,$C06
 dn ___,0,$E00
 dn ___,0,$C04
 dn ___,0,$000
 dn ___,0,$000
 dn ___,0,$E00
 dn ___,0,$C04
 dn ___,0,$E00