include "hUGE.inc"

SECTION "menu theme", ROMX

menuTheme::
db 8
dw order_cnt
dw order1, order2, order3, order4
dw duty_instruments, wave_instruments, noise_instruments
dw routines
dw waves

order_cnt: db 2
order1: dw P6
order2: dw P1
order3: dw P2
order4: dw P3

P1:
 dn G_5,3,$C08
 dn ___,0,$E00
 dn D_5,3,$C08
 dn ___,0,$E00
 dn G_5,3,$C08
 dn ___,0,$E00
 dn D_5,3,$C08
 dn ___,0,$E00
 dn G_5,3,$C08
 dn ___,0,$E00
 dn D_5,3,$C08
 dn ___,0,$E00
 dn G_5,3,$C08
 dn ___,0,$E00
 dn D_5,3,$C08
 dn ___,0,$E00
 dn G_5,3,$C08
 dn ___,0,$E00
 dn D_5,3,$C08
 dn ___,0,$E00
 dn G_5,3,$C08
 dn ___,0,$E00
 dn D_5,3,$C08
 dn ___,0,$E00
 dn G_5,3,$C08
 dn ___,0,$E00
 dn A_5,3,$C08
 dn ___,0,$E00
 dn B_5,3,$C08
 dn ___,0,$E00
 dn A_5,3,$C08
 dn ___,0,$E00
 dn G_5,3,$C08
 dn ___,0,$E00
 dn D_5,3,$C08
 dn ___,0,$E00
 dn G_5,3,$C08
 dn ___,0,$E00
 dn D_5,3,$C08
 dn ___,0,$E00
 dn G_5,3,$C08
 dn ___,0,$E00
 dn D_5,3,$C08
 dn ___,0,$E00
 dn G_5,3,$C08
 dn ___,0,$E00
 dn D_5,3,$C08
 dn ___,0,$E00
 dn G_5,3,$C08
 dn ___,0,$E00
 dn D_5,3,$C08
 dn ___,0,$E00
 dn G_5,3,$C08
 dn ___,0,$E00
 dn D_5,3,$C08
 dn ___,0,$E00
 dn G_5,3,$C08
 dn ___,0,$E00
 dn ___,0,$000
 dn ___,0,$000
 dn ___,0,$000
 dn ___,0,$000
 dn A_5,3,$C08
 dn ___,0,$E00

P2:
 dn G_4,5,$C14
 dn ___,0,$E04
 dn ___,0,$000
 dn D_5,5,$C14
 dn ___,0,$E04
 dn ___,0,$000
 dn D_5,5,$C14
 dn ___,0,$E04
 dn ___,0,$000
 dn B_4,5,$C14
 dn ___,0,$E04
 dn ___,0,$000
 dn A_4,5,$C14
 dn ___,0,$000
 dn ___,0,$E02
 dn ___,0,$000
 dn E_5,2,$113
 dn ___,0,$E02
 dn ___,0,$000
 dn D_5,1,$C14
 dn ___,0,$E04
 dn ___,0,$000
 dn D_5,1,$C14
 dn ___,0,$E04
 dn ___,0,$000
 dn E_5,1,$C14
 dn ___,0,$E04
 dn ___,0,$000
 dn A_4,1,$C14
 dn ___,0,$000
 dn ___,0,$E02
 dn ___,0,$000
 dn F#5,1,$113
 dn ___,0,$E02
 dn G_5,1,$113
 dn ___,0,$472
 dn ___,0,$E02
 dn ___,0,$000
 dn D_5,5,$C14
 dn ___,0,$E04
 dn ___,0,$000
 dn B_4,5,$C14
 dn ___,0,$E04
 dn ___,0,$000
 dn A_4,5,$C14
 dn ___,0,$000
 dn ___,0,$104
 dn ___,0,$102
 dn ___,0,$102
 dn ___,0,$102
 dn ___,0,$102
 dn ___,0,$102
 dn ___,0,$102
 dn ___,0,$102
 dn ___,0,$102
 dn ___,0,$102
 dn ___,0,$102
 dn ___,0,$E00
 dn ___,0,$000
 dn ___,0,$000
 dn ___,0,$000
 dn ___,0,$000
 dn ___,0,$000
 dn ___,0,$000

P3:
 dn D#7,1,$C06
 dn ___,0,$E00
 dn ___,0,$000
 dn ___,0,$000
 dn D#7,4,$C06
 dn D#7,4,$C06
 dn ___,0,$E00
 dn ___,0,$000
 dn D#7,4,$C06
 dn ___,0,$E00
 dn ___,0,$000
 dn ___,0,$000
 dn D#7,4,$C06
 dn D#7,4,$C06
 dn ___,0,$E00
 dn ___,0,$000
 dn D#7,1,$C06
 dn ___,0,$E00
 dn ___,0,$000
 dn ___,0,$000
 dn D#7,4,$C06
 dn D#7,4,$C06
 dn ___,0,$E00
 dn ___,0,$000
 dn D#7,4,$C06
 dn ___,0,$E00
 dn ___,0,$000
 dn ___,0,$000
 dn D#7,4,$C06
 dn D#7,4,$C06
 dn ___,0,$E00
 dn ___,0,$000
 dn D#7,1,$C06
 dn ___,0,$E00
 dn ___,0,$000
 dn ___,0,$000
 dn D#7,4,$C06
 dn D#7,4,$C06
 dn ___,0,$E00
 dn ___,0,$000
 dn D#7,4,$C06
 dn ___,0,$E00
 dn ___,0,$000
 dn ___,0,$000
 dn D#7,4,$C06
 dn D#7,4,$C06
 dn ___,0,$E00
 dn ___,0,$000
 dn D#7,1,$C06
 dn ___,0,$E00
 dn ___,0,$000
 dn ___,0,$000
 dn D#7,4,$C06
 dn D#7,4,$C06
 dn ___,0,$E00
 dn ___,0,$000
 dn D#7,4,$C06
 dn B_5,1,$C0F
 dn ___,0,$000
 dn ___,0,$000
 dn ___,0,$000
 dn ___,0,$E00
 dn D#7,4,$C06
 dn ___,0,$E00

P6:
 dn ___,0,$000
 dn G_5,2,$C08
 dn ___,0,$A02
 dn ___,0,$A30
 dn G_5,2,$C08
 dn ___,0,$A02
 dn ___,0,$A01
 dn ___,0,$E00
 dn ___,0,$000
 dn A_5,2,$C08
 dn ___,0,$A02
 dn ___,0,$E00
 dn B_5,2,$C08
 dn ___,0,$A02
 dn ___,0,$E00
 dn ___,0,$000
 dn ___,0,$000
 dn G_5,2,$C08
 dn ___,0,$A02
 dn ___,0,$A30
 dn G_5,2,$C08
 dn ___,0,$A02
 dn ___,0,$A01
 dn ___,0,$E00
 dn ___,0,$000
 dn B_5,2,$C08
 dn ___,0,$A02
 dn ___,0,$E00
 dn A_5,2,$C08
 dn ___,0,$A02
 dn ___,0,$E00
 dn ___,0,$000
 dn ___,0,$000
 dn G_5,2,$C08
 dn ___,0,$A02
 dn ___,0,$A30
 dn G_5,2,$C08
 dn ___,0,$A02
 dn ___,0,$A01
 dn ___,0,$E00
 dn ___,0,$000
 dn A_5,2,$C08
 dn ___,0,$A02
 dn ___,0,$E00
 dn B_5,2,$C08
 dn ___,0,$A02
 dn ___,0,$E00
 dn ___,0,$000
 dn ___,0,$000
 dn G_5,2,$C08
 dn ___,0,$A02
 dn ___,0,$A30
 dn G_5,2,$C08
 dn ___,0,$A02
 dn ___,0,$A01
 dn ___,0,$E00
 dn ___,0,$000
 dn ___,0,$000
 dn ___,0,$000
 dn ___,0,$000
 dn ___,0,$000
 dn ___,0,$000
 dn ___,0,$000
 dn ___,0,$000
